<?xml version="1.0" encoding="UTF-8" standalone="no"?>
<!-- Created with Inkscape (http://www.inkscape.org/) -->

<svg
   width="102.28945mm"
   height="13.546659mm"
   viewBox="0 0 102.28945 13.546659"
   version="1.1"
   id="svg5"
   inkscape:version="1.1.1 (3bf5ae0d25, 2021-09-20)"
   sodipodi:docname="CodeStepsDevWeb.svg"
   xmlns:inkscape="http://www.inkscape.org/namespaces/inkscape"
   xmlns:sodipodi="http://sodipodi.sourceforge.net/DTD/sodipodi-0.dtd"
   xmlns="http://www.w3.org/2000/svg"
   xmlns:svg="http://www.w3.org/2000/svg">
  <sodipodi:namedview
     id="namedview7"
     pagecolor="#ffffff"
     bordercolor="#666666"
     borderopacity="1.0"
     inkscape:pageshadow="2"
     inkscape:pageopacity="0.0"
     inkscape:pagecheckerboard="0"
     inkscape:document-units="mm"
     showgrid="false"
     showguides="true"
     inkscape:guide-bbox="true"
     inkscape:zoom="1.4289282"
     inkscape:cx="196.30098"
     inkscape:cy="-26.943272"
     inkscape:window-width="1920"
     inkscape:window-height="991"
     inkscape:window-x="2391"
     inkscape:window-y="-9"
     inkscape:window-maximized="1"
     inkscape:current-layer="layer1" />
  <defs
     id="defs2">
    <rect
       x="317.72067"
       y="149.7626"
       width="152.5619"
       height="79.780075"
       id="rect14466" />
    <rect
       x="313.5217"
       y="36.390911"
       width="198.75037"
       height="82.579376"
       id="rect9542" />
    <rect
       x="4.1989512"
       y="4.1989512"
       width="484.27908"
       height="121.76959"
       id="rect2566" />
  </defs>
  <g
     inkscape:label="Layer 1"
     inkscape:groupmode="layer"
     id="layer1"
     transform="translate(-0.74967691,-0.94416597)">
    <g
       aria-label="CodeSteps"
       transform="matrix(0.26458333,0,0,0.26458333,-0.92581047,-2.7774314)"
       id="text2564"
       style="font-size:53.3333px;line-height:1.25;white-space:pre;shape-inside:url(#rect2566)">
      <path
         d="m 26.812539,54.065856 q -4.479998,0 -8.266662,-1.439999 -3.733331,-1.44 -6.506663,-3.999998 -2.7199983,-2.613332 -4.2133307,-6.186663 -1.4933325,-3.573331 -1.4933325,-7.839995 0,-4.266664 1.4933325,-7.839996 1.5466657,-3.573331 4.3199977,-6.133329 2.773331,-2.613332 6.559996,-4.053331 3.839997,-1.439999 8.426661,-1.439999 2.613332,0 5.119997,0.639999 2.559999,0.586667 4.799998,1.866666 2.293331,1.226666 4.159997,3.146665 l -6.879996,8.053328 q -0.746666,-0.906666 -1.813332,-1.653332 -1.013333,-0.746667 -2.399999,-1.173333 -1.333332,-0.48 -3.093331,-0.48 -1.813332,0 -3.466665,0.64 -1.599999,0.586666 -2.826665,1.759999 -1.173332,1.173333 -1.866665,2.879998 -0.693333,1.706666 -0.693333,3.946665 0,2.026665 0.693333,3.679997 0.693333,1.653333 1.973332,2.826665 1.279999,1.173333 3.093331,1.813333 1.813333,0.639999 4.053331,0.639999 1.599999,0 3.039998,-0.48 1.44,-0.479999 2.613332,-1.226665 1.173333,-0.8 2.026666,-1.759999 l 5.49333,8.639994 q -1.386666,1.493333 -3.679998,2.666666 -2.293332,1.173332 -5.066664,1.866665 -2.773331,0.64 -5.599996,0.64 z"
         style="font-weight:900;font-family:Lexend;-inkscape-font-specification:'Lexend Heavy'"
         id="path42716" />
      <path
         d="m 59.452513,54.065856 q -4.639997,0 -8.266661,-1.919999 -3.626665,-1.919999 -5.706664,-5.226664 -2.079998,-3.359998 -2.079998,-7.679995 0,-4.319998 2.079998,-7.626662 2.079999,-3.359998 5.706664,-5.279997 3.626664,-1.919999 8.266661,-1.919999 4.639998,0 8.213329,1.919999 3.626664,1.919999 5.65333,5.279997 2.079998,3.306664 2.079998,7.626662 0,4.319997 -2.079998,7.679995 -2.026666,3.306665 -5.65333,5.226664 -3.573331,1.919999 -8.213329,1.919999 z m 0,-9.066662 q 1.439999,0 2.559999,-0.746666 1.173332,-0.746666 1.813332,-2.026665 0.64,-1.333333 0.64,-2.986665 0,-1.706666 -0.64,-2.986665 -0.64,-1.333333 -1.813332,-2.079999 -1.12,-0.746666 -2.559999,-0.746666 -1.493332,0 -2.666665,0.746666 -1.119999,0.746666 -1.813332,2.079999 -0.64,1.279999 -0.64,2.986665 0,1.653332 0.64,2.986665 0.693333,1.279999 1.813332,2.026665 1.173333,0.746666 2.666665,0.746666 z"
         style="font-weight:900;font-family:Lexend;-inkscape-font-specification:'Lexend Heavy'"
         id="path42718" />
      <path
         d="m 90.759153,54.119189 q -3.519998,0 -6.29333,-1.866666 -2.719998,-1.919998 -4.319997,-5.226663 -1.546666,-3.359998 -1.546666,-7.733329 0,-4.319997 1.599999,-7.679995 1.599999,-3.359998 4.373331,-5.279997 2.826665,-1.919999 6.453329,-1.919999 1.813332,0 3.466665,0.533333 1.653332,0.48 2.986665,1.439999 1.333332,0.906666 2.239998,2.186666 0.960003,1.226665 1.280003,2.666665 l -2.400002,0.746666 V 14.06588 h 10.879992 v 39.466643 h -9.759993 l -0.853333,-6.29333 2.186666,0.48 q -0.26667,1.386666 -1.173333,2.559998 -0.906666,1.173333 -2.293332,2.026666 -1.333332,0.853333 -3.093331,1.333332 -1.759999,0.48 -3.733331,0.48 z m 3.253331,-8.799995 q 1.546666,0 2.613332,-0.693333 1.119999,-0.746666 1.653332,-2.079998 0.586666,-1.333333 0.586666,-3.253332 0,-1.919999 -0.586666,-3.253331 -0.533333,-1.386666 -1.653332,-2.079999 -1.066666,-0.693333 -2.613332,-0.693333 -1.546666,0 -2.613332,0.693333 -1.066666,0.693333 -1.653332,2.079999 -0.533333,1.333332 -0.533333,3.253331 0,1.919999 0.533333,3.253332 0.586666,1.333332 1.653332,2.079998 1.066666,0.693333 2.613332,0.693333 z"
         style="font-weight:900;font-family:Lexend;-inkscape-font-specification:'Lexend Heavy'"
         id="path42720" />
      <path
         d="m 130.22573,54.065856 q -4.96,0 -8.53333,-1.919999 -3.57333,-1.919999 -5.49333,-5.226664 -1.92,-3.359998 -1.92,-7.679995 0,-3.199998 1.06666,-5.919997 1.06667,-2.719998 2.98667,-4.69333 1.97333,-2.026666 4.58666,-3.093332 2.66667,-1.119999 5.81333,-1.119999 3.14667,0 5.70667,1.119999 2.61333,1.066666 4.47999,3.093332 1.86667,1.973332 2.82667,4.69333 1.01333,2.719999 0.90666,5.919997 l -0.0533,2.239999 H 120.2524 l -1.22667,-5.066664 h 14.98666 l -1.01333,1.066666 v -0.96 q 0,-1.013332 -0.53334,-1.759998 -0.48,-0.8 -1.38666,-1.226666 -0.90667,-0.426667 -2.13333,-0.426667 -1.54667,0 -2.61334,0.64 -1.06666,0.639999 -1.65333,1.813332 -0.53333,1.173333 -0.53333,2.826665 0,1.919999 0.8,3.359998 0.85333,1.439999 2.45333,2.239999 1.65333,0.799999 4.05333,0.799999 1.6,0 2.72,-0.373333 1.17333,-0.426666 2.45333,-1.333332 l 4.96,6.986662 q -1.97333,1.546666 -3.89333,2.399999 -1.86667,0.853332 -3.73333,1.226666 -1.81334,0.373333 -3.73333,0.373333 z"
         style="font-weight:900;font-family:Lexend;-inkscape-font-specification:'Lexend Heavy'"
         id="path42722" />
      <path
         d="m 161.26564,54.065856 q -4.21334,0 -7.46667,-0.906666 -3.2,-0.96 -5.65333,-2.666666 -2.4,-1.706665 -4.31999,-3.999997 l 6.66666,-7.466662 q 2.66666,3.413331 5.54666,4.53333 2.93333,1.066666 5.49333,1.066666 1.01333,0 1.81333,-0.16 0.8,-0.213333 1.22667,-0.639999 0.42667,-0.426667 0.42667,-1.173333 0,-0.693333 -0.48,-1.173332 -0.42667,-0.48 -1.17334,-0.8 -0.74666,-0.373333 -1.65333,-0.586666 -0.85333,-0.266667 -1.70666,-0.426667 -0.8,-0.16 -1.44,-0.32 -3.2,-0.746666 -5.6,-1.813332 -2.4,-1.066666 -4,-2.559998 -1.6,-1.493333 -2.4,-3.413332 -0.74666,-1.919998 -0.74666,-4.319997 0,-2.719998 1.22666,-4.959997 1.28,-2.239999 3.36,-3.839998 2.13333,-1.599999 4.8,-2.453332 2.72,-0.853332 5.6,-0.853332 4.21333,0 7.03999,0.799999 2.82667,0.746666 4.74666,2.186665 1.92,1.44 3.30667,3.359998 l -6.72,6.45333 q -1.17333,-1.119999 -2.45333,-1.813332 -1.28,-0.746667 -2.66666,-1.066666 -1.33334,-0.373333 -2.66667,-0.373333 -1.22666,0 -2.08,0.213333 -0.85333,0.16 -1.33333,0.586666 -0.48,0.373333 -0.48,1.066666 0,0.693333 0.58667,1.173333 0.64,0.426666 1.54666,0.746666 0.96,0.32 1.86667,0.533333 0.96,0.16 1.6,0.266666 2.93333,0.533333 5.38666,1.493333 2.45333,0.906666 4.26666,2.346665 1.86667,1.386666 2.82667,3.519998 1.01333,2.079999 1.01333,4.959997 0,4.106664 -2.08,6.879996 -2.02666,2.773332 -5.49333,4.213331 -3.46666,1.386666 -7.73332,1.386666 z"
         style="font-weight:900;font-family:Lexend;-inkscape-font-specification:'Lexend Heavy'"
         id="path42724" />
      <path
         d="M 183.34556,53.532523 V 17.799211 h 10.82666 V 53.532523 Z M 178.9189,34.065868 v -9.066662 h 19.94665 v 9.066662 z"
         style="font-weight:900;font-family:Lexend;-inkscape-font-specification:'Lexend Heavy'"
         id="path42726" />
      <path
         d="m 217.21206,54.065856 q -4.96,0 -8.53333,-1.919999 -3.57333,-1.919999 -5.49333,-5.226664 -1.92,-3.359998 -1.92,-7.679995 0,-3.199998 1.06667,-5.919997 1.06667,-2.719998 2.98667,-4.69333 1.97333,-2.026666 4.58666,-3.093332 2.66666,-1.119999 5.81333,-1.119999 3.14666,0 5.70666,1.119999 2.61333,1.066666 4.48,3.093332 1.86667,1.973332 2.82666,4.69333 1.01334,2.719999 0.90667,5.919997 l -0.0533,2.239999 h -22.34666 l -1.22666,-5.066664 h 14.98666 l -1.01334,1.066666 v -0.96 q 0,-1.013332 -0.53333,-1.759998 -0.48,-0.8 -1.38667,-1.226666 -0.90666,-0.426667 -2.13333,-0.426667 -1.54666,0 -2.61333,0.64 -1.06667,0.639999 -1.65333,1.813332 -0.53333,1.173333 -0.53333,2.826665 0,1.919999 0.79999,3.359998 0.85334,1.439999 2.45334,2.239999 1.65333,0.799999 4.05333,0.799999 1.6,0 2.72,-0.373333 1.17333,-0.426666 2.45333,-1.333332 l 4.95999,6.986662 q -1.97333,1.546666 -3.89333,2.399999 -1.86666,0.853332 -3.73333,1.226666 -1.81333,0.373333 -3.73333,0.373333 z"
         style="font-weight:900;font-family:Lexend;-inkscape-font-specification:'Lexend Heavy'"
         id="path42728" />
      <path
         d="M 234.65197,65.265849 V 24.999206 h 10.02666 l 0.58667,6.29333 -2.18667,-0.48 q 0.37334,-1.866665 1.81334,-3.306664 1.43999,-1.44 3.62666,-2.239999 2.24,-0.853333 4.85333,-0.853333 3.52,0 6.24,1.919999 2.77333,1.866665 4.31999,5.226663 1.6,3.306665 1.6,7.679996 0,4.319997 -1.6,7.679995 -1.6,3.306665 -4.42666,5.226664 -2.77333,1.866665 -6.4,1.866665 -2.39999,0 -4.53333,-0.853332 -2.08,-0.853333 -3.51999,-2.346666 -1.44,-1.546665 -1.92,-3.519998 l 2.39999,-0.746666 v 18.719989 z m 15.46666,-20.053321 q 1.54666,0 2.61333,-0.693333 1.06667,-0.693333 1.6,-2.026666 0.58667,-1.333332 0.58667,-3.253331 0,-1.919999 -0.58667,-3.253332 -0.53333,-1.386665 -1.6,-2.079998 -1.06667,-0.693333 -2.61333,-0.693333 -1.54667,0 -2.66667,0.693333 -1.06666,0.693333 -1.65333,2.079998 -0.53333,1.333333 -0.53333,3.253332 0,1.919999 0.53333,3.253331 0.58667,1.333333 1.65333,2.026666 1.12,0.693333 2.66667,0.693333 z"
         style="font-weight:900;font-family:Lexend;-inkscape-font-specification:'Lexend Heavy'"
         id="path42730" />
      <path
         d="m 280.62522,54.065856 q -4.63999,0 -8.10666,-1.386666 -3.41333,-1.439999 -5.33333,-3.573331 l 6.29333,-5.386664 q 1.70667,1.493333 3.89333,2.239999 2.24,0.693333 3.73333,0.693333 0.53333,0 0.90667,-0.05333 0.42666,-0.106666 0.64,-0.266666 0.26666,-0.213333 0.37333,-0.426666 0.16,-0.213334 0.16,-0.533333 0,-0.8 -0.85333,-1.173333 -0.48,-0.213333 -1.6,-0.533333 -1.06667,-0.32 -2.82667,-0.746666 -2.07999,-0.533333 -3.83999,-1.333333 -1.70667,-0.799999 -2.93334,-1.866665 -1.27999,-1.173333 -2.02666,-2.666665 -0.69333,-1.493333 -0.69333,-3.359998 0,-2.186666 1.01333,-3.893332 1.01333,-1.706665 2.77333,-2.879998 1.76,-1.226666 3.94666,-1.866665 2.18667,-0.64 4.48,-0.64 2.61333,0 4.85333,0.533333 2.29333,0.48 4.26667,1.439999 2.02666,0.906666 3.67999,2.186666 l -5.49333,6.133329 q -0.90666,-0.746666 -2.13333,-1.439999 -1.17333,-0.693333 -2.50666,-1.119999 -1.28,-0.48 -2.4,-0.48 -0.58667,0 -1.01333,0.106667 -0.37334,0.05333 -0.64,0.266666 -0.26667,0.16 -0.42667,0.426667 -0.10667,0.213333 -0.10667,0.533333 0,0.426666 0.26667,0.799999 0.26667,0.373333 0.85333,0.64 0.48,0.213333 1.6,0.586666 1.17333,0.373333 3.41333,1.013333 2.4,0.693333 4.21333,1.599999 1.86667,0.906666 2.98667,2.133332 0.74667,0.853333 1.17333,1.919999 0.42667,1.066666 0.42667,2.293332 0,2.933331 -1.70667,5.226663 -1.65333,2.239999 -4.58666,3.573331 -2.93333,1.28 -6.72,1.28 z"
         style="font-weight:900;font-family:Lexend;-inkscape-font-specification:'Lexend Heavy'"
         id="path42732" />
    </g>
    <text
       xml:space="preserve"
       transform="scale(0.26458333)"
       id="text9540"
       style="font-style:normal;font-weight:normal;font-size:40px;line-height:1.25;font-family:sans-serif;white-space:pre;shape-inside:url(#rect9542);fill:#000000;fill-opacity:1;stroke:none" />
    <g
       aria-label=".dev"
       transform="matrix(0.26458333,0,0,0.26458333,-7.3275249,-41.198565)"
       id="text14464"
       style="font-size:53.3333px;line-height:1.25;white-space:pre;shape-inside:url(#rect14466);fill-opacity:0.5">
      <path
         d="m 323.8007,199.62836 q -1.12,0 -1.76,-0.69334 -0.58667,-0.69333 -0.58667,-1.97333 0,-1.17333 0.64,-1.92 0.64,-0.74666 1.70667,-0.74666 1.12,0 1.70667,0.69333 0.63999,0.69333 0.63999,1.97333 0,1.17333 -0.63999,1.92 -0.64,0.74667 -1.70667,0.74667 z"
         style="font-weight:200;font-family:Lexend;-inkscape-font-specification:'Lexend Ultra-Light'"
         id="path42753" />
      <path
         d="m 344.81395,199.62836 q -3.78666,0 -6.77333,-1.86667 -2.98666,-1.86667 -4.74666,-5.12 -1.70667,-3.25333 -1.70667,-7.41333 0,-4.21333 1.76,-7.46666 1.81334,-3.25333 4.8,-5.11999 2.98667,-1.86667 6.66666,-1.86667 2.13334,0 4.05333,0.64 1.92,0.64 3.46667,1.81333 1.54666,1.12 2.66666,2.66667 1.12,1.54666 1.6,3.35999 l -0.90666,-0.90666 v -18.71999 h 2.66666 v 39.46664 h -2.56 l -0.21333,-7.19999 1.01333,-0.74667 q -0.48,1.76 -1.6,3.30667 -1.12,1.54666 -2.66666,2.71999 -1.54667,1.17334 -3.46667,1.81334 -1.91999,0.64 -4.05333,0.64 z m 0.37334,-2.66667 q 3.03999,0 5.43999,-1.49333 2.45333,-1.54667 3.84,-4.16 1.44,-2.66666 1.44,-6.13333 0,-3.41333 -1.38667,-6.02666 -1.38666,-2.66667 -3.83999,-4.16 -2.4,-1.54667 -5.49333,-1.54667 -3.14667,0 -5.6,1.54667 -2.4,1.49333 -3.78666,4.16 -1.38667,2.61333 -1.38667,6.02666 0,3.36 1.33333,6.02666 1.38667,2.66667 3.78667,4.21333 2.45333,1.54667 5.65333,1.54667 z"
         style="font-weight:200;font-family:Lexend;-inkscape-font-specification:'Lexend Ultra-Light'"
         id="path42755" />
      <path
         d="m 377.82723,199.62836 q -4,0 -7.14666,-1.81334 -3.09333,-1.81333 -4.85333,-5.06666 -1.76,-3.25333 -1.76,-7.57333 0,-3.14666 0.96,-5.76 1.01333,-2.61333 2.77333,-4.53333 1.76,-1.97333 4.21333,-3.03999 2.50667,-1.06667 5.44,-1.06667 2.88,0 5.17333,0.96 2.34666,0.96 3.94666,2.77333 1.6,1.76 2.4,4.21333 0.8,2.4 0.69333,5.33333 l -0.0533,1.44 H 366.0406 v -2.45333 h 22.13332 l -1.17333,0.96 v -1.28 q 0,-2.13333 -1.06667,-4.26667 -1.01333,-2.13333 -3.14666,-3.57333 -2.13333,-1.44 -5.38667,-1.44 -3.03999,0 -5.43999,1.33334 -2.34667,1.33333 -3.73333,3.89333 -1.33334,2.56 -1.33334,6.34666 0,3.62667 1.33334,6.34666 1.33333,2.66667 3.83999,4.16 2.56,1.44 6.24,1.44 1.97333,0 4.05333,-0.64 2.08,-0.64 4.69333,-2.77333 l 1.38667,1.97333 q -1.17334,1.12 -2.77333,2.08 -1.6,0.90667 -3.57334,1.49333 -1.97333,0.53334 -4.26666,0.53334 z"
         style="font-weight:200;font-family:Lexend;-inkscape-font-specification:'Lexend Ultra-Light'"
         id="path42757" />
      <path
         d="m 402.73381,199.09502 -11.67999,-27.73331 h 3.09333 l 9.91999,24.47998 -1.12,0.74667 11.2,-25.22665 h 2.98666 l -12.58666,27.73331 z"
         style="font-weight:200;font-family:Lexend;-inkscape-font-specification:'Lexend Ultra-Light'"
         id="path42759" />
    </g>
  </g>
</svg>
