<?xml version="1.0" encoding="UTF-8" standalone="no"?>
<!-- Created with Inkscape (http://www.inkscape.org/) -->

<svg
   width="176.94899mm"
   height="33.319008mm"
   viewBox="0 0 176.94899 33.319008"
   version="1.1"
   id="svg5"
   inkscape:version="1.1.1 (3bf5ae0d25, 2021-09-20)"
   sodipodi:docname="logo.svg"
   xmlns:inkscape="http://www.inkscape.org/namespaces/inkscape"
   xmlns:sodipodi="http://sodipodi.sourceforge.net/DTD/sodipodi-0.dtd"
   xmlns="http://www.w3.org/2000/svg"
   xmlns:svg="http://www.w3.org/2000/svg">
  <sodipodi:namedview
     id="namedview7"
     pagecolor="#ffffff"
     bordercolor="#666666"
     borderopacity="1.0"
     inkscape:pageshadow="2"
     inkscape:pageopacity="0.0"
     inkscape:pagecheckerboard="0"
     inkscape:document-units="mm"
     showgrid="false"
     inkscape:zoom="0.52410025"
     inkscape:cx="13.356223"
     inkscape:cy="536.15697"
     inkscape:window-width="1409"
     inkscape:window-height="1016"
     inkscape:window-x="176"
     inkscape:window-y="50"
     inkscape:window-maximized="0"
     inkscape:current-layer="text27702"
     fit-margin-top="0"
     fit-margin-left="0"
     fit-margin-right="0"
     fit-margin-bottom="0" />
  <defs
     id="defs2" />
  <g
     inkscape:label="Layer 1"
     inkscape:groupmode="layer"
     id="layer1">
    <g
       id="text16386"
       style="font-size:10.5833px;line-height:1.25;stroke-width:0.264583" />
    <g
       id="g25894"
       transform="translate(-7.9963951,-47.444381)">
      <g
         id="g25886">
        <path
           id="path590"
           style="fill:none;stroke:#000000;stroke-width:0.665;stroke-linecap:round;stroke-linejoin:round"
           d="M 18.37571,76.916491 A 13.251878,13.251878 0 0 1 8.4285285,62.443253 13.251878,13.251878 0 0 1 21.581629,50.806373 a 13.251878,13.251878 0 0 1 13.1531,11.636879 13.251878,13.251878 0 0 1 -9.94718,14.473239" />
        <g
           aria-label="{}"
           id="text1276"
           style="font-size:16.9333px;line-height:1.25;stroke-width:0.264583">
          <path
             d="m 18.43144,69.370407 q 0,0.967381 0.661457,1.496547 0.661457,0.537434 2.067053,0.826821 L 20.969781,72.1816 q -1.868616,-0.471288 -2.488732,-1.107941 -0.611848,-0.628384 -0.611848,-1.703252 0,-0.64492 0.338997,-1.885152 0.338997,-1.2485 0.338997,-1.752861 0,-0.727603 -0.496093,-1.058332 -0.487824,-0.330728 -1.496546,-0.46302 v -0.64492 q 1.000453,-0.14056 1.496546,-0.46302 0.496093,-0.330729 0.496093,-1.058331 0,-0.51263 -0.338997,-1.744593 -0.338997,-1.231964 -0.338997,-1.901689 0,-1.083136 0.611848,-1.71152 0.620116,-0.628384 2.488732,-1.099673 l 0.190169,0.496093 q -1.405596,0.289388 -2.067053,0.818553 -0.661457,0.529166 -0.661457,1.496547 0,0.562238 0.37207,1.893421 0.372069,1.331182 0.372069,1.719788 0,0.810285 -0.570507,1.306377 -0.562238,0.487825 -1.446937,0.553971 v 0.01654 q 0.876431,0.06615 1.446937,0.570507 0.570507,0.496093 0.570507,1.306377 0,0.380338 -0.372069,1.719789 -0.37207,1.331182 -0.37207,1.885152 z"
             style="font-family:Candara;-inkscape-font-specification:Candara"
             id="path1844" />
          <path
             d="m 26.005123,63.872046 q -0.884699,-0.06615 -1.455205,-0.553971 -0.562239,-0.496092 -0.562239,-1.306377 0,-0.388606 0.37207,-1.719788 0.372069,-1.331183 0.372069,-1.893421 0,-0.967381 -0.661457,-1.496547 -0.661457,-0.529165 -2.067053,-0.818553 l 0.190169,-0.496093 q 1.868616,0.471289 2.480464,1.099673 0.620116,0.628384 0.620116,1.71152 0,0.669725 -0.338997,1.901689 -0.338997,1.231963 -0.338997,1.744593 0,0.727602 0.496093,1.058331 0.496093,0.32246 1.496547,0.46302 v 0.64492 q -1.008722,0.132292 -1.504815,0.46302 -0.487825,0.330729 -0.487825,1.058332 0,0.504361 0.338997,1.752861 0.338997,1.240232 0.338997,1.885152 0,1.074868 -0.620116,1.703252 -0.611848,0.636653 -2.480464,1.107941 l -0.190169,-0.487825 q 1.405596,-0.289387 2.067053,-0.826821 0.661457,-0.529166 0.661457,-1.496547 0,-0.55397 -0.372069,-1.885152 -0.37207,-1.339451 -0.37207,-1.719789 0,-0.810284 0.570507,-1.306377 0.570507,-0.504361 1.446937,-0.570507 z"
             style="font-family:Candara;-inkscape-font-specification:Candara"
             id="path1846" />
        </g>
        <g
           aria-label="."
           id="text20745"
           style="font-size:8.46667px;line-height:1.25;stroke-width:0.264583">
          <path
             d="m 21.585762,76.716904 q 0.206706,0 0.3514,0.148828 0.144694,0.148828 0.144694,0.355534 0,0.214974 -0.144694,0.363802 -0.144694,0.148828 -0.355534,0.148828 -0.206705,0 -0.355534,-0.148828 Q 21.0814,77.43624 21.0814,77.2254 q 0,-0.21084 0.144694,-0.359668 0.148829,-0.148828 0.359668,-0.148828 z"
             style="font-family:Century;-inkscape-font-specification:Century"
             id="path1849" />
        </g>
      </g>
    </g>
    <path
       style="fill:none;stroke:#000000;stroke-width:0.665;stroke-linecap:butt;stroke-linejoin:miter;stroke-miterlimit:4;stroke-dasharray:none;stroke-opacity:1"
       d="M 36.030529,0 V 33.319008"
       id="path25719" />
    <g
       aria-label="ApexSandbox.io"
       id="text27702"
       style="font-size:16.9333px;line-height:1.25;font-family:Candara;-inkscape-font-specification:Candara;stroke-width:0.264583">
      <path
         d="M 49.188571,9.2015755 54.860565,21.364117 H 53.554187 L 51.64423,17.362302 h -5.242047 l -1.901689,4.001815 H 43.144507 L 48.890915,9.2015755 Z m -0.148828,2.5796825 -2.091858,4.406957 h 4.158911 z"
         style="font-family:'Century Gothic';-inkscape-font-specification:'Century Gothic'"
         id="path1814" />
      <path
         d="m 56.572085,12.368301 h 1.149281 v 1.653643 q 0.686262,-0.942577 1.579229,-1.413865 0.892967,-0.471288 1.992639,-0.471288 1.918226,0 3.282481,1.380792 1.364255,1.380791 1.364255,3.323821 0,1.984371 -1.355987,3.373431 -1.347719,1.380792 -3.257676,1.380792 -1.074868,0 -1.976103,-0.446484 -0.901235,-0.446483 -1.628838,-1.331182 v 4.836904 H 56.572085 Z M 61.202284,13.253 q -1.504815,0 -2.538341,1.050063 -1.025259,1.050063 -1.025259,2.612755 0,1.025259 0.454752,1.843812 0.46302,0.818553 1.314646,1.298109 0.859894,0.479556 1.810738,0.479556 0.934308,0 1.752861,-0.479556 0.826822,-0.487825 1.314646,-1.355987 0.487825,-0.868162 0.487825,-1.819007 0,-0.959112 -0.487825,-1.819007 Q 63.806771,14.203844 62.988218,13.732556 62.169665,13.253 61.202284,13.253 Z"
         style="font-family:'Century Gothic';-inkscape-font-specification:'Century Gothic'"
         id="path1816" />
      <path
         d="m 75.679925,18.379292 0.975649,0.512629 q -0.479556,0.942576 -1.107941,1.521351 -0.628384,0.578775 -1.413864,0.884699 -0.78548,0.297656 -1.777666,0.297656 -2.199344,0 -3.439576,-1.438669 -1.240232,-1.446938 -1.240232,-3.265945 0,-1.71152 1.050063,-3.05097 1.331182,-1.703252 3.563599,-1.703252 2.298564,0 3.671087,1.744593 0.975649,1.231964 0.992186,3.075775 h -8.086313 q 0.03307,1.570961 1.000454,2.579683 0.967381,1.000453 2.389514,1.000453 0.686261,0 1.331182,-0.239778 0.653189,-0.239778 1.10794,-0.636652 0.454752,-0.396874 0.983918,-1.281573 z m 0,-2.422587 q -0.23151,-0.926039 -0.677994,-1.48001 -0.438215,-0.55397 -1.165818,-0.892967 -0.727602,-0.338996 -1.529619,-0.338996 -1.322914,0 -2.273759,0.851626 -0.69453,0.620115 -1.050063,1.860347 z"
         style="font-family:'Century Gothic';-inkscape-font-specification:'Century Gothic'"
         id="path1818" />
      <path
         d="m 78.085975,12.368301 h 1.38906 l 2.381245,3.33209 2.381245,-3.33209 h 1.38906 l -3.075775,4.274666 3.464381,4.72115 h -1.405596 l -2.753315,-3.778574 -2.711974,3.778574 h -1.380791 l 3.406503,-4.72115 z"
         style="font-family:'Century Gothic';-inkscape-font-specification:'Century Gothic'"
         id="path1820" />
      <path
         d="m 86.172285,19.098626 1.033527,-0.620116 q 1.091404,2.009176 2.521805,2.009176 0.611847,0 1.149281,-0.281119 0.537434,-0.289388 0.818553,-0.768944 0.281119,-0.479556 0.281119,-1.01699 0,-0.611848 -0.41341,-1.198891 -0.570507,-0.810285 -2.08359,-1.951298 -1.521351,-1.149282 -1.893421,-1.661911 -0.64492,-0.859894 -0.64492,-1.860348 0,-0.793748 0.380338,-1.446937 0.380337,-0.653189 1.066599,-1.0252586 0.69453,-0.3803378 1.504815,-0.3803378 0.859894,0 1.604033,0.4299471 0.752408,0.4216788 1.587497,1.5626923 l -0.992186,0.752407 q -0.686261,-0.909503 -1.174086,-1.198891 -0.479556,-0.289387 -1.050063,-0.289387 -0.735871,0 -1.207159,0.446483 -0.46302,0.446484 -0.46302,1.099673 0,0.396874 0.165364,0.768944 0.165365,0.372069 0.60358,0.810284 0.239778,0.23151 1.57096,1.215428 1.579229,1.165818 2.166272,2.075321 0.587043,0.909504 0.587043,1.827275 0,1.322914 -1.008722,2.298563 -1.000453,0.97565 -2.439122,0.97565 -1.107941,0 -2.009176,-0.587044 -0.901235,-0.595311 -1.661911,-1.984371 z"
         style="font-family:'Century Gothic';-inkscape-font-specification:'Century Gothic'"
         id="path1822" />
      <path
         d="m 104.63521,12.368301 v 8.995816 h -1.14102 v -1.546156 q -0.7276,0.884699 -1.6371,1.331182 -0.90124,0.446484 -1.976107,0.446484 -1.909957,0 -3.265944,-1.380792 -1.347718,-1.38906 -1.347718,-3.373431 0,-1.94303 1.364255,-3.323821 1.364255,-1.380792 3.28248,-1.380792 1.107944,0 2.000904,0.471288 0.90124,0.471288 1.57923,1.413865 v -1.653643 z m -4.6302,0.884699 q -0.967384,0 -1.785937,0.479556 -0.818554,0.471288 -1.306378,1.331182 -0.479556,0.859895 -0.479556,1.819007 0,0.950845 0.487824,1.819007 0.487825,0.868162 1.306378,1.355987 0.826821,0.479556 1.769397,0.479556 0.950842,0 1.802472,-0.479556 0.85162,-0.479556 1.30638,-1.298109 0.46302,-0.818553 0.46302,-1.843812 0,-1.562692 -1.03353,-2.612755 Q 101.50982,13.253 100.00501,13.253 Z"
         style="font-family:'Century Gothic';-inkscape-font-specification:'Century Gothic'"
         id="path1824" />
      <path
         d="m 107.23969,12.368301 h 1.15755 v 1.612302 q 0.69453,-0.92604 1.53789,-1.380792 0.84336,-0.46302 1.83554,-0.46302 1.00873,0 1.78594,0.512629 0.78548,0.512629 1.15755,1.380792 0.37207,0.868162 0.37207,2.703705 v 4.6302 h -1.14928 v -4.291203 q 0,-1.554424 -0.1323,-2.075321 -0.2067,-0.892967 -0.77721,-1.339451 -0.5705,-0.454751 -1.48828,-0.454751 -1.05006,0 -1.88515,0.694529 -0.82682,0.69453 -1.0914,1.719789 -0.16537,0.669725 -0.16537,2.447391 v 3.299017 h -1.15755 z"
         style="font-family:'Century Gothic';-inkscape-font-specification:'Century Gothic'"
         id="path1826" />
      <path
         d="M 126.54597,8.8956516 V 21.364117 h -1.14102 v -1.546156 q -0.7276,0.884699 -1.6371,1.331182 -0.90124,0.446484 -1.9761,0.446484 -1.90996,0 -3.26595,-1.380792 -1.34772,-1.38906 -1.34772,-3.373431 0,-1.94303 1.36426,-3.323821 1.36425,-1.380792 3.28248,-1.380792 1.10794,0 2.00091,0.471288 0.90123,0.471288 1.57922,1.413865 V 8.8956516 Z M 121.91577,13.253 q -0.96738,0 -1.78593,0.479556 -0.81856,0.471288 -1.30638,1.331182 -0.47956,0.859895 -0.47956,1.819007 0,0.950845 0.48783,1.819007 0.48782,0.868162 1.30637,1.355987 0.82682,0.479556 1.7694,0.479556 0.95085,0 1.80247,-0.479556 0.85163,-0.479556 1.30638,-1.298109 0.46302,-0.818553 0.46302,-1.843812 0,-1.562692 -1.03353,-2.612755 Q 123.42058,13.253 121.91577,13.253 Z"
         style="font-family:'Century Gothic';-inkscape-font-specification:'Century Gothic'"
         id="path1828" />
      <path
         d="M 129.24141,21.364117 V 8.8956516 h 1.14928 v 5.0188054 q 0.7276,-0.892967 1.62884,-1.331182 0.90123,-0.446484 1.9761,-0.446484 1.90996,0 3.25767,1.38906 1.35599,1.380791 1.35599,3.356894 0,1.951299 -1.36425,3.33209 -1.36426,1.380792 -3.28248,1.380792 -1.09968,0 -1.99264,-0.471289 -0.89297,-0.471288 -1.57923,-1.413864 v 1.653643 z m 4.6302,-0.884699 q 0.96738,0 1.78593,-0.471288 0.81855,-0.479557 1.29811,-1.339451 0.48782,-0.859894 0.48782,-1.819007 0,-0.959112 -0.48782,-1.827275 -0.48783,-0.868162 -1.31465,-1.347718 -0.81855,-0.487825 -1.75286,-0.487825 -0.95084,0 -1.81074,0.487825 -0.85162,0.479556 -1.31464,1.298109 -0.45475,0.818553 -0.45475,1.843812 0,1.562692 1.02525,2.612755 1.03353,1.050063 2.53835,1.050063 z"
         style="font-family:'Century Gothic';-inkscape-font-specification:'Century Gothic'"
         id="path1830" />
      <path
         d="m 144.97582,12.136791 q 2.07532,0 3.43958,1.504815 1.24023,1.372523 1.24023,3.249407 0,1.885153 -1.31465,3.299017 -1.30638,1.405597 -3.36516,1.405597 -2.06705,0 -3.3817,-1.405597 -1.30638,-1.413864 -1.30638,-3.299017 0,-1.868616 1.24023,-3.241139 1.36426,-1.513083 3.44785,-1.513083 z m 0,1.132745 q -1.43867,0 -2.4722,1.0666 -1.03352,1.066599 -1.03352,2.579682 0,0.975649 0.47129,1.819007 0.47128,0.843358 1.2733,1.306378 0.80202,0.454751 1.76113,0.454751 0.95911,0 1.76113,-0.454751 0.80202,-0.46302 1.2733,-1.306378 0.47129,-0.843358 0.47129,-1.819007 0,-1.513083 -1.04179,-2.579682 -1.03353,-1.0666 -2.46393,-1.0666 z"
         style="font-family:'Century Gothic';-inkscape-font-specification:'Century Gothic'"
         id="path1832" />
      <path
         d="m 150.7801,12.368301 h 1.38906 l 2.38125,3.33209 2.38124,-3.33209 h 1.38906 l -3.07577,4.274666 3.46438,4.72115 h -1.4056 l -2.75331,-3.778574 -2.71198,3.778574 h -1.38079 l 3.4065,-4.72115 z"
         style="font-family:'Century Gothic';-inkscape-font-specification:'Century Gothic'"
         id="path1834" />
      <path
         d="m 161.20632,19.54511 q 0.42168,0 0.71933,0.297655 0.29766,0.297656 0.29766,0.727603 0,0.421679 -0.29766,0.727603 -0.29765,0.297656 -0.71933,0.297656 -0.42168,0 -0.71934,-0.297656 -0.29765,-0.305924 -0.29765,-0.727603 0,-0.429947 0.29765,-0.727603 0.29766,-0.297655 0.71934,-0.297655 z"
         style="fill:#999999"
         id="path1836" />
      <path
         d="m 165.02624,8.6641417 q 0.39687,0 0.67799,0.2811192 0.28112,0.2811192 0.28112,0.6779935 0,0.3886056 -0.28112,0.6697256 -0.28112,0.281119 -0.67799,0.281119 -0.38861,0 -0.66973,-0.281119 -0.28112,-0.28112 -0.28112,-0.6697256 0,-0.3968743 0.28112,-0.6779935 0.28112,-0.2811192 0.66973,-0.2811192 z m -0.57878,3.7041593 h 1.16582 v 8.995816 h -1.16582 z"
         style="fill:#999999"
         id="path1838" />
      <path
         d="m 172.26919,12.136791 q 2.07532,0 3.43957,1.504815 1.24023,1.372523 1.24023,3.249407 0,1.885153 -1.31464,3.299017 -1.30638,1.405597 -3.36516,1.405597 -2.06706,0 -3.3817,-1.405597 -1.30638,-1.413864 -1.30638,-3.299017 0,-1.868616 1.24023,-3.241139 1.36426,-1.513083 3.44785,-1.513083 z m 0,1.132745 q -1.43867,0 -2.4722,1.0666 -1.03353,1.066599 -1.03353,2.579682 0,0.975649 0.47129,1.819007 0.47129,0.843358 1.27331,1.306378 0.80201,0.454751 1.76113,0.454751 0.95911,0 1.76112,-0.454751 0.80202,-0.46302 1.27331,-1.306378 0.47129,-0.843358 0.47129,-1.819007 0,-1.513083 -1.0418,-2.579682 -1.03352,-1.0666 -2.46392,-1.0666 z"
         style="fill:#999999"
         id="path1840" />
    </g>
  </g>
</svg>
